<svg xml:space="preserve" style="max-height: 500px" viewBox="0 0 237.456 267.6234567901235" y="0px" x="0px" xmlns:xlink="http://www.w3.org/1999/xlink" xmlns="http://www.w3.org/2000/svg" id="Layer_1" version="1.1" width="237.456" height="267.6234567901235">
<style type="text/css">
	.st0{fill:#820AAA;}
	.st1{fill:#46C8A0;}
	.st2{fill:#E16AFF;}
	.st3{fill:#052891;}
	.st4{fill:#FA235A;}
	.st5{fill:#6491F0;}
</style>
<g>
	<path d="M235.8,75.3c-13.8-23.7-34.9-42.4-60.1-53.3l-37.3,86.1c6.9,3,12.6,8.1,16.4,14.6L235.8,75.3z" class="st0"/>
	<path d="M117.1,212.8c-7.6-0.8-15-2.7-22-5.8l-13.9,31.7c13.6,5.9,28.2,9,43,9v-34.6&#10;&#9;&#9;C121.9,213.2,119.5,213.1,117.1,212.8z" class="st1"/>
	<path d="M188.6,174.5c-4.5,8.5-10.6,16-18,22.1c-7.4,6.1-15.9,10.7-25.1,13.5c-6.9,2.1-14,3.2-21.2,3.2l0,53.6&#10;&#9;&#9;c23,0,45.5-6.2,65.2-18.1c19.7-11.8,35.8-28.8,46.5-49.1L188.6,174.5z" class="st2"/>
	<path d="M155.4,156.9c-2.2,4.1-5.1,7.7-8.7,10.7c-3.6,2.9-7.7,5.2-12.1,6.5c-4.4,1.3-9.1,1.8-13.7,1.4&#10;&#9;&#9;c-4.6-0.5-9.1-1.8-13.2-4c-4.1-2.2-7.7-5.2-10.6-8.8c-2.9-3.6-5.1-7.7-6.4-12.2c-1.3-4.4-1.8-9.1-1.3-13.7&#10;&#9;&#9;c0.5-4.6,1.9-9.1,4.1-13.1l0,0c-0.1,0.2-0.2,0.3-0.3,0.5l-33.2-17.5c-4.3,8.2-7,17.1-8,26.2c-1,9.5-0.1,19.2,2.6,28.4&#10;&#9;&#9;c2.7,9.2,7.3,17.8,13.3,25.2c6.1,7.4,13.5,13.6,22,18.1c8.4,4.5,17.7,7.4,27.3,8.3c9.5,0.9,19.2,0,28.4-2.8&#10;&#9;&#9;c9.2-2.8,17.7-7.4,25.1-13.5c7.4-6.1,13.5-13.6,18-22.1L155.4,156.9z" class="st3"/>
	<path d="M52.3,131c1.1-8.6,3.8-16.8,7.7-24.3L29.2,90.4c-5.9,11.2-9.8,23.3-11.5,36c-3.1,23.5,1.7,47.3,13.5,67.8&#10;&#9;&#9;l30.2-17.4C53.4,162.9,50.2,146.8,52.3,131z" class="st4"/>
	<path d="M124.3,0C98.7,0,73.6,7,51.7,20.2C29.8,33.5,11.9,52.4,0,75.1l93.1,49c3-5.7,7.5-10.4,13-13.7&#10;&#9;&#9;c5.5-3.3,11.8-5.1,18.2-5.1V0z" class="st5"/>
	<g>
		<path d="M398.5,184.3h19.7l22.7-30.4h23v30.4h16.3V96.7h-16.3L398.5,184.3L398.5,184.3z M451.1,140.1l12.8-17.2v17.2H451.1z"/>
		<path d="M402.8,112.7v-16h-63.2v16h23.5v71.6h16.3v-71.6H402.8z"/>
		<path d="M307.3,133.1l-14.8-6.1c-5.3-2.1-8.6-4-8.6-9.4c0-4.1,4-8,10.9-8c6.9,0,11.1,3.1,16.1,8l11-10.9c-6.9-7.6-14.4-12-27.1-12&#10;&#9;&#9;&#9;c-15.8,0-27.3,11.6-27.3,22.9c0,11.3,6.1,18.9,18.3,24l11.3,4.8c9.5,4,13.9,6.9,13.9,13c0,7.3-5.3,11.8-14.7,11.8&#10;&#9;&#9;&#9;c-11.3,0-19.9-8.3-23.4-13.9l-12,10.1c8,13.1,20.2,18.9,35.6,18.9c17.8,0,30.8-11.6,30.8-26.9&#10;&#9;&#9;&#9;C327.2,146.1,320.2,138.5,307.3,133.1L307.3,133.1z"/>
		<path d="M565.5,155.9l-36.3-59.3H513v87.6h16.3v-60.2l36.3,60.2h16.3V96.7h-16.3V155.9z"/>
		<path d="M808.3,96.7v59.3L772,96.7h-16.3v87.6H772v-60.2l36.3,60.2h16.3V96.7H808.3z"/>
		<path d="M723,96.7h-16.3v87.6H723V96.7z"/>
		<path d="M681.1,96.7h-18.8L631,138.4V96.7h-16.3v87.6H631v-22.9l5.4-7.1l27.3,30.1h21.5l-38.4-41.8L681.1,96.7z"/>
	</g>
</g>
</svg>